<mxfile host="app.diagrams.net" modified="2024-03-25T00:38:00.486Z" agent="Mozilla/5.0 (Windows NT 10.0; Win64; x64) AppleWebKit/537.36 (KHTML, like Gecko) Chrome/123.0.0.0 Safari/537.36" etag="UqPZbxv9AhuRALL-2CTr" version="24.1.0" type="github">
  <diagram id="C5RBs43oDa-KdzZeNtuy" name="Page-1">
    <mxGraphModel dx="1050" dy="565" grid="1" gridSize="10" guides="1" tooltips="1" connect="1" arrows="1" fold="1" page="1" pageScale="1" pageWidth="827" pageHeight="1169" math="0" shadow="0">
      <root>
        <mxCell id="WIyWlLk6GJQsqaUBKTNV-0" />
        <mxCell id="WIyWlLk6GJQsqaUBKTNV-1" parent="WIyWlLk6GJQsqaUBKTNV-0" />
        <mxCell id="zkfFHV4jXpPFQw0GAbJ--0" value="Person" style="swimlane;fontStyle=2;align=center;verticalAlign=top;childLayout=stackLayout;horizontal=1;startSize=26;horizontalStack=0;resizeParent=1;resizeLast=0;collapsible=1;marginBottom=0;rounded=0;shadow=0;strokeWidth=1;" parent="WIyWlLk6GJQsqaUBKTNV-1" vertex="1">
          <mxGeometry x="220" y="120" width="160" height="138" as="geometry">
            <mxRectangle x="230" y="140" width="160" height="26" as="alternateBounds" />
          </mxGeometry>
        </mxCell>
        <mxCell id="zkfFHV4jXpPFQw0GAbJ--1" value="Name" style="text;align=left;verticalAlign=top;spacingLeft=4;spacingRight=4;overflow=hidden;rotatable=0;points=[[0,0.5],[1,0.5]];portConstraint=eastwest;" parent="zkfFHV4jXpPFQw0GAbJ--0" vertex="1">
          <mxGeometry y="26" width="160" height="26" as="geometry" />
        </mxCell>
        <mxCell id="zkfFHV4jXpPFQw0GAbJ--2" value="Phone Number" style="text;align=left;verticalAlign=top;spacingLeft=4;spacingRight=4;overflow=hidden;rotatable=0;points=[[0,0.5],[1,0.5]];portConstraint=eastwest;rounded=0;shadow=0;html=0;" parent="zkfFHV4jXpPFQw0GAbJ--0" vertex="1">
          <mxGeometry y="52" width="160" height="26" as="geometry" />
        </mxCell>
        <mxCell id="zkfFHV4jXpPFQw0GAbJ--3" value="Email Address" style="text;align=left;verticalAlign=top;spacingLeft=4;spacingRight=4;overflow=hidden;rotatable=0;points=[[0,0.5],[1,0.5]];portConstraint=eastwest;rounded=0;shadow=0;html=0;" parent="zkfFHV4jXpPFQw0GAbJ--0" vertex="1">
          <mxGeometry y="78" width="160" height="26" as="geometry" />
        </mxCell>
        <mxCell id="zkfFHV4jXpPFQw0GAbJ--4" value="" style="line;html=1;strokeWidth=1;align=left;verticalAlign=middle;spacingTop=-1;spacingLeft=3;spacingRight=3;rotatable=0;labelPosition=right;points=[];portConstraint=eastwest;" parent="zkfFHV4jXpPFQw0GAbJ--0" vertex="1">
          <mxGeometry y="104" width="160" height="8" as="geometry" />
        </mxCell>
        <mxCell id="zkfFHV4jXpPFQw0GAbJ--5" value="Purchase Parking Pass" style="text;align=left;verticalAlign=top;spacingLeft=4;spacingRight=4;overflow=hidden;rotatable=0;points=[[0,0.5],[1,0.5]];portConstraint=eastwest;" parent="zkfFHV4jXpPFQw0GAbJ--0" vertex="1">
          <mxGeometry y="112" width="160" height="26" as="geometry" />
        </mxCell>
        <mxCell id="zkfFHV4jXpPFQw0GAbJ--6" value="Student" style="swimlane;fontStyle=0;align=center;verticalAlign=top;childLayout=stackLayout;horizontal=1;startSize=26;horizontalStack=0;resizeParent=1;resizeLast=0;collapsible=1;marginBottom=0;rounded=0;shadow=0;strokeWidth=1;" parent="WIyWlLk6GJQsqaUBKTNV-1" vertex="1">
          <mxGeometry x="120" y="360" width="160" height="138" as="geometry">
            <mxRectangle x="130" y="380" width="160" height="26" as="alternateBounds" />
          </mxGeometry>
        </mxCell>
        <mxCell id="zkfFHV4jXpPFQw0GAbJ--7" value="Student Number" style="text;align=left;verticalAlign=top;spacingLeft=4;spacingRight=4;overflow=hidden;rotatable=0;points=[[0,0.5],[1,0.5]];portConstraint=eastwest;" parent="zkfFHV4jXpPFQw0GAbJ--6" vertex="1">
          <mxGeometry y="26" width="160" height="26" as="geometry" />
        </mxCell>
        <mxCell id="zkfFHV4jXpPFQw0GAbJ--8" value="Average Mark" style="text;align=left;verticalAlign=top;spacingLeft=4;spacingRight=4;overflow=hidden;rotatable=0;points=[[0,0.5],[1,0.5]];portConstraint=eastwest;rounded=0;shadow=0;html=0;" parent="zkfFHV4jXpPFQw0GAbJ--6" vertex="1">
          <mxGeometry y="52" width="160" height="26" as="geometry" />
        </mxCell>
        <mxCell id="zkfFHV4jXpPFQw0GAbJ--9" value="" style="line;html=1;strokeWidth=1;align=left;verticalAlign=middle;spacingTop=-1;spacingLeft=3;spacingRight=3;rotatable=0;labelPosition=right;points=[];portConstraint=eastwest;" parent="zkfFHV4jXpPFQw0GAbJ--6" vertex="1">
          <mxGeometry y="78" width="160" height="8" as="geometry" />
        </mxCell>
        <mxCell id="zkfFHV4jXpPFQw0GAbJ--10" value="Is Eligible To Enroll" style="text;align=left;verticalAlign=top;spacingLeft=4;spacingRight=4;overflow=hidden;rotatable=0;points=[[0,0.5],[1,0.5]];portConstraint=eastwest;fontStyle=4" parent="zkfFHV4jXpPFQw0GAbJ--6" vertex="1">
          <mxGeometry y="86" width="160" height="26" as="geometry" />
        </mxCell>
        <mxCell id="zkfFHV4jXpPFQw0GAbJ--11" value="Get Seminars Taken" style="text;align=left;verticalAlign=top;spacingLeft=4;spacingRight=4;overflow=hidden;rotatable=0;points=[[0,0.5],[1,0.5]];portConstraint=eastwest;" parent="zkfFHV4jXpPFQw0GAbJ--6" vertex="1">
          <mxGeometry y="112" width="160" height="26" as="geometry" />
        </mxCell>
        <mxCell id="zkfFHV4jXpPFQw0GAbJ--12" value="" style="endArrow=block;endSize=10;endFill=0;shadow=0;strokeWidth=1;rounded=0;curved=0;edgeStyle=elbowEdgeStyle;elbow=vertical;" parent="WIyWlLk6GJQsqaUBKTNV-1" source="zkfFHV4jXpPFQw0GAbJ--6" target="zkfFHV4jXpPFQw0GAbJ--0" edge="1">
          <mxGeometry width="160" relative="1" as="geometry">
            <mxPoint x="200" y="203" as="sourcePoint" />
            <mxPoint x="200" y="203" as="targetPoint" />
          </mxGeometry>
        </mxCell>
        <mxCell id="zkfFHV4jXpPFQw0GAbJ--13" value="Professor" style="swimlane;fontStyle=0;align=center;verticalAlign=top;childLayout=stackLayout;horizontal=1;startSize=26;horizontalStack=0;resizeParent=1;resizeLast=0;collapsible=1;marginBottom=0;rounded=0;shadow=0;strokeWidth=1;" parent="WIyWlLk6GJQsqaUBKTNV-1" vertex="1">
          <mxGeometry x="330" y="360" width="160" height="70" as="geometry">
            <mxRectangle x="340" y="380" width="170" height="26" as="alternateBounds" />
          </mxGeometry>
        </mxCell>
        <mxCell id="zkfFHV4jXpPFQw0GAbJ--14" value="Salary" style="text;align=left;verticalAlign=top;spacingLeft=4;spacingRight=4;overflow=hidden;rotatable=0;points=[[0,0.5],[1,0.5]];portConstraint=eastwest;" parent="zkfFHV4jXpPFQw0GAbJ--13" vertex="1">
          <mxGeometry y="26" width="160" height="26" as="geometry" />
        </mxCell>
        <mxCell id="zkfFHV4jXpPFQw0GAbJ--15" value="" style="line;html=1;strokeWidth=1;align=left;verticalAlign=middle;spacingTop=-1;spacingLeft=3;spacingRight=3;rotatable=0;labelPosition=right;points=[];portConstraint=eastwest;" parent="zkfFHV4jXpPFQw0GAbJ--13" vertex="1">
          <mxGeometry y="52" width="160" height="8" as="geometry" />
        </mxCell>
        <mxCell id="zkfFHV4jXpPFQw0GAbJ--16" value="" style="endArrow=block;endSize=10;endFill=0;shadow=0;strokeWidth=1;rounded=0;curved=0;edgeStyle=elbowEdgeStyle;elbow=vertical;" parent="WIyWlLk6GJQsqaUBKTNV-1" source="zkfFHV4jXpPFQw0GAbJ--13" target="zkfFHV4jXpPFQw0GAbJ--0" edge="1">
          <mxGeometry width="160" relative="1" as="geometry">
            <mxPoint x="210" y="373" as="sourcePoint" />
            <mxPoint x="310" y="271" as="targetPoint" />
          </mxGeometry>
        </mxCell>
        <mxCell id="zkfFHV4jXpPFQw0GAbJ--17" value="Address" style="swimlane;fontStyle=0;align=center;verticalAlign=top;childLayout=stackLayout;horizontal=1;startSize=26;horizontalStack=0;resizeParent=1;resizeLast=0;collapsible=1;marginBottom=0;rounded=0;shadow=0;strokeWidth=1;" parent="WIyWlLk6GJQsqaUBKTNV-1" vertex="1">
          <mxGeometry x="508" y="120" width="160" height="216" as="geometry">
            <mxRectangle x="550" y="140" width="160" height="26" as="alternateBounds" />
          </mxGeometry>
        </mxCell>
        <mxCell id="zkfFHV4jXpPFQw0GAbJ--18" value="Street" style="text;align=left;verticalAlign=top;spacingLeft=4;spacingRight=4;overflow=hidden;rotatable=0;points=[[0,0.5],[1,0.5]];portConstraint=eastwest;" parent="zkfFHV4jXpPFQw0GAbJ--17" vertex="1">
          <mxGeometry y="26" width="160" height="26" as="geometry" />
        </mxCell>
        <mxCell id="zkfFHV4jXpPFQw0GAbJ--19" value="City" style="text;align=left;verticalAlign=top;spacingLeft=4;spacingRight=4;overflow=hidden;rotatable=0;points=[[0,0.5],[1,0.5]];portConstraint=eastwest;rounded=0;shadow=0;html=0;" parent="zkfFHV4jXpPFQw0GAbJ--17" vertex="1">
          <mxGeometry y="52" width="160" height="26" as="geometry" />
        </mxCell>
        <mxCell id="zkfFHV4jXpPFQw0GAbJ--20" value="State" style="text;align=left;verticalAlign=top;spacingLeft=4;spacingRight=4;overflow=hidden;rotatable=0;points=[[0,0.5],[1,0.5]];portConstraint=eastwest;rounded=0;shadow=0;html=0;" parent="zkfFHV4jXpPFQw0GAbJ--17" vertex="1">
          <mxGeometry y="78" width="160" height="26" as="geometry" />
        </mxCell>
        <mxCell id="zkfFHV4jXpPFQw0GAbJ--21" value="Postal Code" style="text;align=left;verticalAlign=top;spacingLeft=4;spacingRight=4;overflow=hidden;rotatable=0;points=[[0,0.5],[1,0.5]];portConstraint=eastwest;rounded=0;shadow=0;html=0;" parent="zkfFHV4jXpPFQw0GAbJ--17" vertex="1">
          <mxGeometry y="104" width="160" height="26" as="geometry" />
        </mxCell>
        <mxCell id="zkfFHV4jXpPFQw0GAbJ--22" value="Country" style="text;align=left;verticalAlign=top;spacingLeft=4;spacingRight=4;overflow=hidden;rotatable=0;points=[[0,0.5],[1,0.5]];portConstraint=eastwest;rounded=0;shadow=0;html=0;" parent="zkfFHV4jXpPFQw0GAbJ--17" vertex="1">
          <mxGeometry y="130" width="160" height="26" as="geometry" />
        </mxCell>
        <mxCell id="zkfFHV4jXpPFQw0GAbJ--23" value="" style="line;html=1;strokeWidth=1;align=left;verticalAlign=middle;spacingTop=-1;spacingLeft=3;spacingRight=3;rotatable=0;labelPosition=right;points=[];portConstraint=eastwest;" parent="zkfFHV4jXpPFQw0GAbJ--17" vertex="1">
          <mxGeometry y="156" width="160" height="8" as="geometry" />
        </mxCell>
        <mxCell id="zkfFHV4jXpPFQw0GAbJ--24" value="Validate" style="text;align=left;verticalAlign=top;spacingLeft=4;spacingRight=4;overflow=hidden;rotatable=0;points=[[0,0.5],[1,0.5]];portConstraint=eastwest;" parent="zkfFHV4jXpPFQw0GAbJ--17" vertex="1">
          <mxGeometry y="164" width="160" height="26" as="geometry" />
        </mxCell>
        <mxCell id="zkfFHV4jXpPFQw0GAbJ--25" value="Output As Label" style="text;align=left;verticalAlign=top;spacingLeft=4;spacingRight=4;overflow=hidden;rotatable=0;points=[[0,0.5],[1,0.5]];portConstraint=eastwest;" parent="zkfFHV4jXpPFQw0GAbJ--17" vertex="1">
          <mxGeometry y="190" width="160" height="26" as="geometry" />
        </mxCell>
        <mxCell id="zkfFHV4jXpPFQw0GAbJ--26" value="" style="endArrow=open;shadow=0;strokeWidth=1;rounded=0;curved=0;endFill=1;edgeStyle=elbowEdgeStyle;elbow=vertical;" parent="WIyWlLk6GJQsqaUBKTNV-1" source="zkfFHV4jXpPFQw0GAbJ--0" target="zkfFHV4jXpPFQw0GAbJ--17" edge="1">
          <mxGeometry x="0.5" y="41" relative="1" as="geometry">
            <mxPoint x="380" y="192" as="sourcePoint" />
            <mxPoint x="540" y="192" as="targetPoint" />
            <mxPoint x="-40" y="32" as="offset" />
          </mxGeometry>
        </mxCell>
        <mxCell id="zkfFHV4jXpPFQw0GAbJ--27" value="0..1" style="resizable=0;align=left;verticalAlign=bottom;labelBackgroundColor=none;fontSize=12;" parent="zkfFHV4jXpPFQw0GAbJ--26" connectable="0" vertex="1">
          <mxGeometry x="-1" relative="1" as="geometry">
            <mxPoint y="4" as="offset" />
          </mxGeometry>
        </mxCell>
        <mxCell id="zkfFHV4jXpPFQw0GAbJ--28" value="1" style="resizable=0;align=right;verticalAlign=bottom;labelBackgroundColor=none;fontSize=12;" parent="zkfFHV4jXpPFQw0GAbJ--26" connectable="0" vertex="1">
          <mxGeometry x="1" relative="1" as="geometry">
            <mxPoint x="-7" y="4" as="offset" />
          </mxGeometry>
        </mxCell>
        <mxCell id="zkfFHV4jXpPFQw0GAbJ--29" value="lives at" style="text;html=1;resizable=0;points=[];;align=center;verticalAlign=middle;labelBackgroundColor=none;rounded=0;shadow=0;strokeWidth=1;fontSize=12;" parent="zkfFHV4jXpPFQw0GAbJ--26" vertex="1" connectable="0">
          <mxGeometry x="0.5" y="49" relative="1" as="geometry">
            <mxPoint x="-38" y="40" as="offset" />
          </mxGeometry>
        </mxCell>
        <mxCell id="7LHUwbM9mT0Qbh2TwuiY-0" value="&lt;span data-meta=&quot;&lt;--(miro-data-v1)tl2kroutqq+gnq+gn111oZynrqBnXZ2qnK2fhJ9ddV2wk6WRiayfp52prnhdZ12fnK+cXXW2XaqdpaCer65ddZa2XbKkn6Kgr3+cr5xddbZdpa6qqV11tl2toK6qsK2eoF11tl2kn111XW5vcHNycW9wbHBwcXFrcWtvcnRdZ12dqpytn4SfXXVdsJOlkYmsn6edqa54XWddqZyooF11XZ+tnLKkqpqfpJyirZyoaaupol1nXaKgqaCtnK+gn111r62woGddsqSfr6NddW5tbWddo6CkoqOvXXVycXO4Z12gs6+gramcp46qsK2eoF11tl2tnLJ/nK+cXXVdXbhnXa6vtKegXXVdtrhdZ12aq6qupK+kqqlddbZdqqGhrqCvi7NddbZds111aGxxcmtxdGl0bm9udHNxcHN0Z120XXV0dHRyaXRzc3JucHRzcHJ0cri4Z12unpynoF11tl2unpynoF11bHNzaW5rcm1wa3JrcWt0b2+4Z12toKecr6SxoI6enKegXXVsc3NpbmtybXBrcmtxa3Rvb2ddraqvnK+kqqlddbZdraqvnK+kqqlddWu4Z12toKecr6SxoI2qr5yvpKqpXXVrZ12aq5ytoKmvXXWpsKenuGddr7SroF11XaCzr6CtqZynmp+knKKtnKhduGddr7SroF11bG9nXaSfXXVrZ12kqaSvpJynhJ9ddV1ub3BzcnFvcHNub2ttcHNybm5rXbhntl2ypJ+ioK9/nK+cXXW2XaWuqqlddbZdrqS1oF11tl2ypJ+vo111b3RnXaOgpKKjr111bWu4Z12aq6qupK+kqqlddbZdqqGhrqCvi7NddbZds111aGxxcmtxdGl0bm9udHNxcHN0Z120XXVocm50bG1pb3Fua21sdHBsbnC4uGddrp6cp6BddbZdrp6cp6BddWxva29pb3JtcnBrcW5wcnBtb7hnXa2gp5yvpLGgjp6cp6BddWxva29pb3JtcnBrcW5wcnBtb2ddraqvnK+kqqlddbZdraqvnK+kqqlddWu4Z12toKecr6SxoI2qr5yvpKqpXXVrZ12aq5ytoKmvXXWpsKenZ12voLOvXXVdd6t5fqecrq6grndqq3ldZ12ur7SnoF11XbaXXa6vl111bG9nl12dnpdddWhsZ5ddnaqXXXVsZ5ddna6el111a2eXXa+cl111l12el11nl12vnpdddWxxcnJybWxwZ5ddr66el111bGeXXaGhqZdddZddiqugqY6cqa6XXWeXXauXXXVrZ5ddnZdddWtnl12wl111a2eXXaSXXXVrZ5ddrpdddWtnl12hspdddWtnl12drZ6XXXVobGeXXZ2tqpdddWxnl12drbKXXXVrZ5ddna2ul111bWeXXaOnl111a2eXXauyrq6XXXVruF24Z12vtKugXXVdr6Czr124Z12vtKugXXVsb2ddpJ9ddWxnXaSppK+knKeEn111XW5vcHNycW9wc25va21wc3Jybm5duGe2XbKkn6Kgr3+cr5xddbZdpa6qqV11tl2toK6qsK2eoF11tl2ioKmgrZyvoJ9dda+tsKBnXamcqKBddV2frZyypKqan6Scoq2cqGmrqaJdZ12kn111XW5vcHNycW9wbHBwcXByc2xsbHNdZ12dqpytn4SfXXVdsJOlkYmsn6edqa54XWddsqSfr6NddW5tbWddo6CkoqOvXXVycXO4Z12gs6+gramcp46qsK2eoF11tl2tnLJ/nK+cXXVdXbhnXa6vtKegXXVdtrhdZ12aq6qupK+kqqlddbZdqqGhrqCvi7NddbZds111aHNscW5zaXFtcXFxbXFwcW10Z120XXV0dHRyaXRzc3JucHRzcHJxc7i4Z12unpynoF11tl2unpynoF11bHNzaW5rcm1wa3JrcWt0b2+4Z12toKecr6SxoI6enKegXXVsc3NpbmtybXBrcmtxa3Rvb2ddraqvnK+kqqlddbZdraqvnK+kqqlddWu4Z12toKecr6SxoI2qr5yvpKqpXXVrZ12aq5ytoKmvXXWpsKenuGddr7SroF11XaCzr6CtqZynmp+knKKtnKhduGddr7SroF11bG9nXaSfXXVtZ12kqaSvpJynhJ9ddV1ub3BzcnFvcHNub2tubGtwbW5uXbhntl2ypJ+ioK9/nK+cXXW2XaWuqqlddbZdraCuqrCtnqBddbZdoqCpoK2cr6CfXXWvrbCgZ12pnKigXXVdn62csqSqmp+knKKtnKhpq6miXWddpJ9ddV1ub3BzcnFvcGxwcHFxa29ycnByXWddnaqcrZ+En111XbCTpZGJrJ+nnamueF1nXbKkn6+jXXVubW1nXaOgpKKjr111c21zuGddoLOvoK2pnKeOqrCtnqBddbZdrZyyf5yvnF11XV24Z12ur7SnoF11Xba4XWddmquqrqSvpKqpXXW2Xaqhoa6gr4uzXXW2XbNddWhua3JuaXFybW50dHRwa21sbnJnXbRddXR0dHJpdHNzcm5wdHNwcnFzuLhnXa6enKegXXW2Xa6enKegXXVsc3NpbmtybXBrcmtxa3Rvb7hnXa2gp5yvpLGgjp6cp6BddWxzc2lua3JtcGtya3FrdG9vZ12tqq+cr6SqqV11tl2tqq+cr6SqqV11a7hnXa2gp5yvpLGgjaqvnK+kqqlddWtnXZqrnK2gqa9ddamwp6e4Z12vtKugXXVdoLOvoK2pnKean6Scoq2cqF24Z12vtKugXXVsb2ddpJ9ddW5nXaSppK+knKeEn111XW5vcHNycW9wc25va25xa3Ftb3FduGe2XbKkn6Kgr3+cr5xddbZdpa6qqV11tl2toK6qsK2eoF11tl2kn111XW5vcHNycW9wbHBwcXBydG9ybm1dZ12dqpytn4SfXXVdsJOlkYmsn6edqa54XWddqZyooF11XZ+tnLKkqpqfpJyirZyoaaupol1nXaKgqaCtnK+gn111r62woGddsqSfr6NddW5tbWddo6CkoqOvXXVycXO4Z12gs6+gramcp46qsK2eoF11tl2tnLJ/nK+cXXVdXbhnXa6vtKegXXVdtrhdZ12aq6qupK+kqqlddbZdqqGhrqCvi7NddbZds111c29rb29pbGxvcXRzbHRsbW5nXbRddXNubm9pcHBybnNybHBrbnBzuLhnXa6enKegXXW2Xa6enKegXXVsc3NpbmtybXBrcmtxa3Rvb7hnXa2gp5yvpLGgjp6cp6BddWxzc2lua3JtcGtya3FrdG9vZ12tqq+cr6SqqV11tl2tqq+cr6SqqV11a7hnXa2gp5yvpLGgjaqvnK+kqqlddWtnXZqrnK2gqa9ddamwp6e4Z12vtKugXXVdoLOvoK2pnKean6Scoq2cqF24Z12vtKugXXVsb2ddpJ9ddW9nXaSppK+knKeEn111XW5vcHNycW9wc25va29wcHBwcGtduGe2XbKkn6Kgr3+cr5xddbZdpa6qqV11tl2toK6qsK2eoF11tl2kn111XW5vcHNycW9wbHBwcXB0a3F0bXFdZ12dqpytn4SfXXVdsJOlkYmsn6edqa54XWddqZyooF11XZ+tnLKkqpqfpJyirZyoaaupol1nXaKgqaCtnK+gn111r62woGddsqSfr6NddW5tbWddo6CkoqOvXXVycXO4Z12gs6+gramcp46qsK2eoF11tl2tnLJ/nK+cXXVdXbhnXa6vtKegXXVdtrhdZ12aq6qupK+kqqlddbZdqqGhrqCvi7NddbZds111bHJsbHFtaWtvdG9tcHBwbnFtZ120XXVzbm5vaXBwcm5zcmxwa25uuLhnXa6enKegXXW2Xa6enKegXXVsc3NpbmtybXBrcmtxa3Rvb7hnXa2gp5yvpLGgjp6cp6BddWxzc2lua3JtcGtya3FrdG9vZ12tqq+cr6SqqV11tl2tqq+cr6SqqV11a7hnXa2gp5yvpLGgjaqvnK+kqqlddWtnXZqrnK2gqa9ddamwp6e4Z12vtKugXXVdoLOvoK2pnKean6Scoq2cqF24Z12vtKugXXVsb2ddpJ9ddXBnXaSppK+knKeEn111XW5vcHNycW9wc25va3Nwc3Nuc2xduJhnXaigr5xddba4uGddsaCtrqSqqV11bWddo6qur111XaikrappnqqoXbg=(/miro-data-v1)--&gt;&quot;&gt;&lt;/span&gt;&lt;div&gt;&lt;div&gt;&lt;div&gt;&lt;font style=&quot;font-size: 35px;&quot;&gt;Classes:&lt;/font&gt;&lt;/div&gt;&lt;/div&gt;&lt;/div&gt;" style="text;whiteSpace=wrap;html=1;" vertex="1" parent="WIyWlLk6GJQsqaUBKTNV-1">
          <mxGeometry x="20" y="580" width="140" height="50" as="geometry" />
        </mxCell>
        <mxCell id="7LHUwbM9mT0Qbh2TwuiY-1" value="Pessoa" style="swimlane;fontStyle=1;align=center;verticalAlign=top;childLayout=stackLayout;horizontal=1;startSize=26;horizontalStack=0;resizeParent=1;resizeParentMax=0;resizeLast=0;collapsible=1;marginBottom=0;whiteSpace=wrap;html=1;" vertex="1" parent="WIyWlLk6GJQsqaUBKTNV-1">
          <mxGeometry x="20" y="650" width="160" height="450" as="geometry" />
        </mxCell>
        <mxCell id="7LHUwbM9mT0Qbh2TwuiY-2" value="- nome: String&lt;br&gt;- vida: int&lt;br&gt;- maxVida: int&lt;br&gt;- ataque: double&lt;br&gt;- inventario: Item[]&lt;br&gt;- atributo:&amp;nbsp;" style="text;align=left;verticalAlign=top;spacingLeft=4;spacingRight=4;overflow=hidden;rotatable=0;points=[[0,0.5],[1,0.5]];portConstraint=eastwest;whiteSpace=wrap;html=1;fillColor=default;" vertex="1" parent="7LHUwbM9mT0Qbh2TwuiY-1">
          <mxGeometry y="26" width="160" height="164" as="geometry" />
        </mxCell>
        <mxCell id="7LHUwbM9mT0Qbh2TwuiY-3" value="" style="line;strokeWidth=1;align=left;verticalAlign=middle;spacingTop=-1;spacingLeft=3;spacingRight=3;rotatable=0;labelPosition=right;points=[];portConstraint=eastwest;fillColor=default;" vertex="1" parent="7LHUwbM9mT0Qbh2TwuiY-1">
          <mxGeometry y="190" width="160" height="8" as="geometry" />
        </mxCell>
        <mxCell id="7LHUwbM9mT0Qbh2TwuiY-4" value="+ getNome(): String&lt;br&gt;+ setNome(String): String&lt;br&gt;&lt;br&gt;+ getVida(): int&lt;br style=&quot;border-color: var(--border-color);&quot;&gt;+ setVida(int): int&lt;br&gt;&lt;br&gt;+ getMaxVida(): int&lt;br style=&quot;border-color: var(--border-color);&quot;&gt;+ setMaxVIda(int): int&lt;br&gt;&lt;br&gt;+ getAtaque(): double&lt;br style=&quot;border-color: var(--border-color);&quot;&gt;+ setAtaque(double): double&lt;br&gt;&lt;br&gt;+ getInventario(): String[]&lt;br style=&quot;border-color: var(--border-color);&quot;&gt;+ setInventario(String[]):&amp;nbsp;&#x9;String[]&lt;br&gt;&lt;div&gt;&lt;br/&gt;&lt;/div&gt;" style="text;align=left;verticalAlign=top;spacingLeft=4;spacingRight=4;overflow=hidden;rotatable=0;points=[[0,0.5],[1,0.5]];portConstraint=eastwest;whiteSpace=wrap;html=1;fillColor=default;" vertex="1" parent="7LHUwbM9mT0Qbh2TwuiY-1">
          <mxGeometry y="198" width="160" height="252" as="geometry" />
        </mxCell>
        <mxCell id="7LHUwbM9mT0Qbh2TwuiY-5" value="Item" style="swimlane;fontStyle=1;align=center;verticalAlign=top;childLayout=stackLayout;horizontal=1;startSize=26;horizontalStack=0;resizeParent=1;resizeParentMax=0;resizeLast=0;collapsible=1;marginBottom=0;whiteSpace=wrap;html=1;" vertex="1" parent="WIyWlLk6GJQsqaUBKTNV-1">
          <mxGeometry x="200" y="650" width="160" height="450" as="geometry" />
        </mxCell>
        <mxCell id="7LHUwbM9mT0Qbh2TwuiY-6" value="- Id: String&lt;br&gt;- nome: String&lt;br&gt;- quantidade: int&lt;br&gt;- estacavel: int&lt;br&gt;- quant_max: int" style="text;align=left;verticalAlign=top;spacingLeft=4;spacingRight=4;overflow=hidden;rotatable=0;points=[[0,0.5],[1,0.5]];portConstraint=eastwest;whiteSpace=wrap;html=1;fillColor=default;" vertex="1" parent="7LHUwbM9mT0Qbh2TwuiY-5">
          <mxGeometry y="26" width="160" height="164" as="geometry" />
        </mxCell>
        <mxCell id="7LHUwbM9mT0Qbh2TwuiY-7" value="" style="line;strokeWidth=1;align=left;verticalAlign=middle;spacingTop=-1;spacingLeft=3;spacingRight=3;rotatable=0;labelPosition=right;points=[];portConstraint=eastwest;fillColor=default;" vertex="1" parent="7LHUwbM9mT0Qbh2TwuiY-5">
          <mxGeometry y="190" width="160" height="8" as="geometry" />
        </mxCell>
        <mxCell id="7LHUwbM9mT0Qbh2TwuiY-8" value="&lt;br&gt;&lt;div&gt;&lt;br&gt;&lt;/div&gt;" style="text;align=left;verticalAlign=top;spacingLeft=4;spacingRight=4;overflow=hidden;rotatable=0;points=[[0,0.5],[1,0.5]];portConstraint=eastwest;whiteSpace=wrap;html=1;fillColor=default;" vertex="1" parent="7LHUwbM9mT0Qbh2TwuiY-5">
          <mxGeometry y="198" width="160" height="252" as="geometry" />
        </mxCell>
        <mxCell id="7LHUwbM9mT0Qbh2TwuiY-9" value="Barco" style="swimlane;fontStyle=1;align=center;verticalAlign=top;childLayout=stackLayout;horizontal=1;startSize=26;horizontalStack=0;resizeParent=1;resizeParentMax=0;resizeLast=0;collapsible=1;marginBottom=0;whiteSpace=wrap;html=1;" vertex="1" parent="WIyWlLk6GJQsqaUBKTNV-1">
          <mxGeometry x="380" y="650" width="160" height="450" as="geometry" />
        </mxCell>
        <mxCell id="7LHUwbM9mT0Qbh2TwuiY-10" value="- tipo: String&lt;br&gt;- velocidade: int&lt;br&gt;- carga: Item[]&lt;br&gt;- limiteCarga: int&lt;br&gt;- durabilidadeAtual: float&lt;br&gt;- durabilidadeMax: float&lt;br&gt;-" style="text;align=left;verticalAlign=top;spacingLeft=4;spacingRight=4;overflow=hidden;rotatable=0;points=[[0,0.5],[1,0.5]];portConstraint=eastwest;whiteSpace=wrap;html=1;fillColor=default;" vertex="1" parent="7LHUwbM9mT0Qbh2TwuiY-9">
          <mxGeometry y="26" width="160" height="164" as="geometry" />
        </mxCell>
        <mxCell id="7LHUwbM9mT0Qbh2TwuiY-11" value="" style="line;strokeWidth=1;align=left;verticalAlign=middle;spacingTop=-1;spacingLeft=3;spacingRight=3;rotatable=0;labelPosition=right;points=[];portConstraint=eastwest;fillColor=default;" vertex="1" parent="7LHUwbM9mT0Qbh2TwuiY-9">
          <mxGeometry y="190" width="160" height="8" as="geometry" />
        </mxCell>
        <mxCell id="7LHUwbM9mT0Qbh2TwuiY-12" value="&lt;br&gt;&lt;div&gt;&lt;br&gt;&lt;/div&gt;" style="text;align=left;verticalAlign=top;spacingLeft=4;spacingRight=4;overflow=hidden;rotatable=0;points=[[0,0.5],[1,0.5]];portConstraint=eastwest;whiteSpace=wrap;html=1;fillColor=default;" vertex="1" parent="7LHUwbM9mT0Qbh2TwuiY-9">
          <mxGeometry y="198" width="160" height="252" as="geometry" />
        </mxCell>
        <mxCell id="7LHUwbM9mT0Qbh2TwuiY-13" value="Ilha" style="swimlane;fontStyle=1;align=center;verticalAlign=top;childLayout=stackLayout;horizontal=1;startSize=26;horizontalStack=0;resizeParent=1;resizeParentMax=0;resizeLast=0;collapsible=1;marginBottom=0;whiteSpace=wrap;html=1;" vertex="1" parent="WIyWlLk6GJQsqaUBKTNV-1">
          <mxGeometry x="560" y="650" width="160" height="450" as="geometry" />
        </mxCell>
        <mxCell id="7LHUwbM9mT0Qbh2TwuiY-14" value="- qntPessoas: int&lt;br&gt;- localizacao: int[2]&lt;br&gt;- taxQualidLoot: double&lt;br&gt;- taxQuantiLoot: double&lt;br&gt;- raridade: String" style="text;align=left;verticalAlign=top;spacingLeft=4;spacingRight=4;overflow=hidden;rotatable=0;points=[[0,0.5],[1,0.5]];portConstraint=eastwest;whiteSpace=wrap;html=1;fillColor=default;" vertex="1" parent="7LHUwbM9mT0Qbh2TwuiY-13">
          <mxGeometry y="26" width="160" height="164" as="geometry" />
        </mxCell>
        <mxCell id="7LHUwbM9mT0Qbh2TwuiY-15" value="" style="line;strokeWidth=1;align=left;verticalAlign=middle;spacingTop=-1;spacingLeft=3;spacingRight=3;rotatable=0;labelPosition=right;points=[];portConstraint=eastwest;fillColor=default;" vertex="1" parent="7LHUwbM9mT0Qbh2TwuiY-13">
          <mxGeometry y="190" width="160" height="8" as="geometry" />
        </mxCell>
        <mxCell id="7LHUwbM9mT0Qbh2TwuiY-16" value="&lt;br&gt;&lt;div&gt;&lt;br&gt;&lt;/div&gt;" style="text;align=left;verticalAlign=top;spacingLeft=4;spacingRight=4;overflow=hidden;rotatable=0;points=[[0,0.5],[1,0.5]];portConstraint=eastwest;whiteSpace=wrap;html=1;fillColor=default;" vertex="1" parent="7LHUwbM9mT0Qbh2TwuiY-13">
          <mxGeometry y="198" width="160" height="252" as="geometry" />
        </mxCell>
        <mxCell id="7LHUwbM9mT0Qbh2TwuiY-17" value="Evento" style="swimlane;fontStyle=1;align=center;verticalAlign=top;childLayout=stackLayout;horizontal=1;startSize=26;horizontalStack=0;resizeParent=1;resizeParentMax=0;resizeLast=0;collapsible=1;marginBottom=0;whiteSpace=wrap;html=1;" vertex="1" parent="WIyWlLk6GJQsqaUBKTNV-1">
          <mxGeometry x="750" y="650" width="160" height="450" as="geometry" />
        </mxCell>
        <mxCell id="7LHUwbM9mT0Qbh2TwuiY-18" value="- Fodase: String" style="text;align=left;verticalAlign=top;spacingLeft=4;spacingRight=4;overflow=hidden;rotatable=0;points=[[0,0.5],[1,0.5]];portConstraint=eastwest;whiteSpace=wrap;html=1;fillColor=default;" vertex="1" parent="7LHUwbM9mT0Qbh2TwuiY-17">
          <mxGeometry y="26" width="160" height="164" as="geometry" />
        </mxCell>
        <mxCell id="7LHUwbM9mT0Qbh2TwuiY-19" value="" style="line;strokeWidth=1;align=left;verticalAlign=middle;spacingTop=-1;spacingLeft=3;spacingRight=3;rotatable=0;labelPosition=right;points=[];portConstraint=eastwest;fillColor=default;" vertex="1" parent="7LHUwbM9mT0Qbh2TwuiY-17">
          <mxGeometry y="190" width="160" height="8" as="geometry" />
        </mxCell>
        <mxCell id="7LHUwbM9mT0Qbh2TwuiY-20" value="+ abstract Iniciar()&lt;div&gt;&lt;br/&gt;&lt;/div&gt;" style="text;align=left;verticalAlign=top;spacingLeft=4;spacingRight=4;overflow=hidden;rotatable=0;points=[[0,0.5],[1,0.5]];portConstraint=eastwest;whiteSpace=wrap;html=1;fillColor=default;" vertex="1" parent="7LHUwbM9mT0Qbh2TwuiY-17">
          <mxGeometry y="198" width="160" height="252" as="geometry" />
        </mxCell>
      </root>
    </mxGraphModel>
  </diagram>
</mxfile>
